<?xml version="1.0" standalone="no"?>
<!DOCTYPE svg PUBLIC "-//W3C//DTD SVG 20010904//EN"
 "http://www.w3.org/TR/2001/REC-SVG-20010904/DTD/svg10.dtd">
<svg version="1.0" xmlns="http://www.w3.org/2000/svg"
 width="1000.000000pt" height="1000.000000pt" viewBox="0 0 1000.000000 1000.000000"
 preserveAspectRatio="xMidYMid meet">

<g transform="translate(0.000000,1000.000000) scale(0.100000,-0.100000)"
fill="#000000" stroke="none">
<path d="M1224 7929 c-447 -34 -866 -316 -1069 -719 -52 -104 -83 -187 -113
-310 -25 -104 -25 -111 -30 -580 -2 -261 -1 -665 3 -897 l7 -423 289 0 c186 0
289 -4 289 -10 0 -6 -103 -10 -290 -10 -251 0 -290 -2 -290 -15 0 -13 39 -15
290 -15 160 0 291 1 292 3 1 1 5 400 8 887 6 883 6 885 29 960 37 124 97 226
181 311 129 130 292 207 463 217 l87 5 0 303 0 304 -22 -1 c-13 -1 -68 -5
-124 -10z"/>
<path d="M9390 6462 l0 -1462 293 0 294 0 6 317 c4 174 7 697 7 1162 l0 846
-300 300 -300 300 0 -1463z"/>
<path d="M1980 7398 l0 -363 298 -212 c163 -116 805 -574 1427 -1017 l1129
-806 510 0 c295 0 506 4 501 9 -11 9 -294 213 -1060 761 -258 185 -965 691
-1570 1125 -1074 770 -1209 865 -1227 865 -4 0 -8 -163 -8 -362z"/>
<path d="M6121 6625 c-145 -85 -268 -158 -272 -162 -9 -10 235 -186 2351
-1699 1041 -745 1166 -832 1175 -822 3 2 5 165 5 362 l1 358 -1148 820 c-1896
1356 -1815 1299 -1835 1297 -7 0 -132 -70 -277 -154z"/>
<path d="M4884 4965 c17 -13 97 -15 530 -15 452 1 509 2 492 15 -17 13 -97 15
-530 15 -452 -1 -509 -2 -492 -15z"/>
<path d="M9390 4965 c0 -13 39 -15 295 -15 256 0 295 2 295 15 0 13 -39 15
-295 15 -256 0 -295 -2 -295 -15z"/>
<path d="M1680 4056 l-295 -171 -7 -965 -7 -965 305 -305 304 -305 0 1443 c0
793 -1 1442 -2 1441 -2 -1 -136 -78 -298 -173z"/>
<path d="M1381 3914 c0 -11 3 -14 6 -6 3 7 2 16 -1 19 -3 4 -6 -2 -5 -13z"/>
</g>
</svg>
